M48
; DRILL file {KiCad (5.1.4)-1} date 6 Sep 2021 7:14:02 pm
; FORMAT={-:-/ absolute / inch / decimal}
; #@! TF.CreationDate,2021-09-06T19:14:02+08:00
; #@! TF.GenerationSoftware,Kicad,Pcbnew,(5.1.4)-1
; #@! TF.FileFunction,Plated,1,2,PTH
FMAT,2
INCH
T1C0.0157
T2C0.0236
T3C0.0276
T4C0.0295
T5C0.0315
T6C0.0354
T7C0.0394
T8C0.0433
T9C0.0579
T10C0.0591
T11C0.0866
%
G90
G05
T1
X0.725Y0.6142
X0.8187Y0.5856
X0.9281Y0.5571
X1.0219Y0.5
X1.1312Y0.5285
X1.3235Y0.6142
X1.4206Y0.5856
X1.5273Y0.5571
X1.6156Y0.5
X1.7277Y0.5285
X1.8235Y0.6142
X1.9206Y0.5856
X2.0273Y0.5571
X2.1285Y0.5285
X2.225Y0.5
X2.4235Y0.6142
X2.5206Y0.5856
X2.6321Y0.5571
X2.7285Y0.5285
X2.825Y0.5
X2.8594Y0.0938
X3.0233Y0.6142
X3.13Y0.5856
X3.1686Y0.4715
X3.1772Y0.7822
X3.2258Y0.5571
X3.25Y0.3438
X3.325Y0.5
X3.4317Y0.5285
X3.5173Y0.6142
X3.6294Y0.5856
X3.6875Y-0.6719
X3.7258Y0.5571
X3.8277Y0.5285
X3.8438Y-1.3125
X3.875Y-0.1562
X3.9187Y0.5
X4.0233Y0.6142
X4.125Y-2.0625
X4.1294Y0.5856
X4.1781Y0.6719
X4.1781Y0.4688
X4.2258Y0.5571
X4.3223Y0.5285
X4.4188Y0.5
X4.4375Y-2.8125
X4.5233Y0.6142
X4.6294Y0.5856
X4.6875Y-3.5625
X4.7258Y0.5571
X4.8277Y0.5285
X5.0812Y0.5
X5.126Y0.6427
X5.2267Y0.6142
X5.3231Y0.5856
X5.4196Y0.5571
X5.5215Y0.5285
X5.626Y0.6427
X5.7267Y0.6142
X5.8237Y0.5856
X5.9196Y0.5571
X6.0215Y0.5285
X6.126Y0.6427
X6.2267Y0.6142
X6.3231Y0.5856
X6.4196Y0.5571
X6.5187Y0.5
X6.6254Y0.5285
X6.7177Y0.6427
X6.8204Y0.6142
X6.9175Y0.5856
X7.0242Y0.5571
X7.1254Y0.5285
X7.1719Y0.375
X7.2273Y0.5571
X7.3285Y0.5285
X7.4688Y0.5
X7.75Y-0.6094
X7.8292Y0.6427
X7.9202Y0.6142
X8.0344Y0.5856
X8.1227Y0.5571
X8.2246Y0.5285
X8.2344Y-0.5156
X8.4612Y0.5856
X8.4656Y0.5
X8.5469Y0.4062
X8.6719Y-0.4688
X8.7656Y-0.5612
X9.1146Y-0.3178
X10.0312Y0.3438
X10.3594Y0.2994
X10.7812Y-0.0625
X10.9375Y0.0781
X11.2344Y0.25
X11.4771Y-0.6167
X10.953Y0.9526
X10.9532Y0.9005
X10.9865Y0.9526
X10.9867Y0.9005
X11.0199Y0.9526
X11.0201Y0.9005
X11.0534Y0.9526
X11.0536Y0.9005
X11.0868Y0.9526
X11.087Y0.9005
X11.1203Y0.9526
X11.1205Y0.9005
X11.1538Y0.9526
X11.154Y0.9005
X11.1874Y0.9526
X11.1874Y0.9005
X3.81Y-4.4062
X3.8291Y-4.3603
X3.8291Y-4.4522
X3.875Y-4.3413
X3.875Y-4.4712
X3.9209Y-4.3603
X3.9209Y-4.4522
X3.94Y-4.4062
X7.685Y-0.4688
X7.7041Y-0.4228
X7.7041Y-0.5147
X7.75Y-0.4038
X7.75Y-0.5337
X7.7959Y-0.4228
X7.7959Y-0.5147
X7.815Y-0.4688
X-0.3462Y0.4844
X-0.3272Y0.5303
X-0.3272Y0.4384
X-0.2812Y0.5493
X-0.2812Y0.4194
X-0.2353Y0.5303
X-0.2353Y0.4384
X-0.2163Y0.4844
X11.8413Y0.4844
X11.8603Y0.5303
X11.8603Y0.4384
X11.9062Y0.5493
X11.9062Y0.4194
X11.9522Y0.5303
X11.9522Y0.4384
X11.9712Y0.4844
X11.8413Y1.0469
X11.8603Y1.0928
X11.8603Y1.0009
X11.9062Y1.1118
X11.9062Y0.9819
X11.9522Y1.0928
X11.9522Y1.0009
X11.9712Y1.0469
X-0.3462Y1.0469
X-0.3272Y1.0928
X-0.3272Y1.0009
X-0.2812Y1.1118
X-0.2812Y0.9819
X-0.2353Y1.0928
X-0.2353Y1.0009
X-0.2163Y1.0469
X7.685Y-4.4062
X7.7041Y-4.3603
X7.7041Y-4.4522
X7.75Y-4.3413
X7.75Y-4.4712
X7.7959Y-4.3603
X7.7959Y-4.4522
X7.815Y-4.4062
X-0.3462Y-4.4062
X-0.3272Y-4.3603
X-0.3272Y-4.4522
X-0.2812Y-4.3413
X-0.2812Y-4.4712
X-0.2353Y-4.3603
X-0.2353Y-4.4522
X-0.2163Y-4.4062
X11.8413Y-4.4062
X11.8603Y-4.3603
X11.8603Y-4.4522
X11.9062Y-4.3413
X11.9062Y-4.4712
X11.9522Y-4.3603
X11.9522Y-4.4522
X11.9712Y-4.4062
X-0.3462Y-0.4688
X-0.3272Y-0.4228
X-0.3272Y-0.5147
X-0.2812Y-0.4038
X-0.2812Y-0.5337
X-0.2353Y-0.4228
X-0.2353Y-0.5147
X-0.2163Y-0.4688
X3.81Y-0.4688
X3.8291Y-0.4228
X3.8291Y-0.5147
X3.875Y-0.4038
X3.875Y-0.5337
X3.9209Y-0.4228
X3.9209Y-0.5147
X3.94Y-0.4688
X11.8413Y-0.4688
X11.8603Y-0.4228
X11.8603Y-0.5147
X11.9062Y-0.4038
X11.9062Y-0.5337
X11.9522Y-0.4228
X11.9522Y-0.5147
X11.9712Y-0.4688
T2
X11.75Y0.875
X11.8091Y0.875
T3
X11.4375Y0.7219
X11.4375Y0.4219
X11.625Y0.7219
X11.625Y0.4219
X11.3438Y0.7219
X11.3438Y0.4219
X11.5312Y1.0969
X11.5312Y0.7969
X11.625Y1.0969
X11.625Y0.7969
X11.5312Y0.7219
X11.5312Y0.4219
T4
X5.525Y0.7344
X5.525Y0.4344
X0.825Y0.7344
X0.825Y0.4344
X6.5219Y0.7344
X6.5219Y0.4344
X4.225Y0.7344
X4.225Y0.4344
X4.925Y0.7344
X4.925Y0.4344
X1.925Y0.7344
X1.925Y0.4344
X6.6219Y0.7344
X6.6219Y0.4344
X2.825Y0.7344
X2.825Y0.4344
X7.825Y0.7344
X7.825Y0.4344
X6.7219Y0.7344
X6.7219Y0.4344
X6.4219Y0.7344
X6.4219Y0.4344
X0.125Y0.7344
X0.125Y0.4344
X7.525Y0.7344
X7.525Y0.4344
X6.8219Y0.7344
X6.8219Y0.4344
X3.225Y0.7344
X3.225Y0.4344
X-0.075Y0.7344
X-0.075Y0.4344
X3.625Y0.7344
X3.625Y0.4344
X5.125Y0.7344
X5.125Y0.4344
X4.525Y0.7344
X4.525Y0.4344
X3.825Y0.7344
X3.825Y0.4344
X6.2219Y0.7344
X6.2219Y0.4344
X3.525Y0.7344
X3.525Y0.4344
X2.125Y0.7344
X2.125Y0.4344
X2.425Y0.7344
X2.425Y0.4344
X0.425Y0.7344
X0.425Y0.4344
X0.025Y0.7344
X0.025Y0.4344
X2.525Y0.7344
X2.525Y0.4344
X8.225Y0.7344
X8.225Y0.4344
X4.025Y0.7344
X4.025Y0.4344
X7.1219Y0.7344
X7.1219Y0.4344
X0.325Y0.7344
X0.325Y0.4344
X6.0219Y0.7344
X6.0219Y0.4344
X7.0219Y0.7344
X7.0219Y0.4344
X3.425Y0.7344
X3.425Y0.4344
X5.9219Y0.7344
X5.9219Y0.4344
X1.625Y0.7344
X1.625Y0.4344
X1.725Y0.7344
X1.725Y0.4344
X5.425Y0.7344
X5.425Y0.4344
X4.825Y0.7344
X4.825Y0.4344
X1.525Y0.7344
X1.525Y0.4344
X6.1219Y0.7344
X6.1219Y0.4344
X8.325Y0.7344
X8.325Y0.4344
X1.825Y0.7344
X1.825Y0.4344
X11.4375Y1.0969
X11.4375Y0.7969
X3.125Y0.7344
X3.125Y0.4344
X8.025Y0.7344
X8.025Y0.4344
X11.3438Y1.0969
X11.3438Y0.7969
X8.125Y0.7344
X8.125Y0.4344
X3.025Y0.7344
X3.025Y0.4344
X2.725Y0.7344
X2.725Y0.4344
X6.9219Y0.7344
X6.9219Y0.4344
X7.925Y0.7344
X7.925Y0.4344
X0.925Y0.7344
X0.925Y0.4344
X5.7219Y0.7344
X5.7219Y0.4344
X2.325Y0.7344
X2.325Y0.4344
X4.325Y0.7344
X4.325Y0.4344
X1.325Y0.7344
X1.325Y0.4344
X2.025Y0.7344
X2.025Y0.4344
X4.725Y0.7344
X4.725Y0.4344
X4.425Y0.7344
X4.425Y0.4344
X6.3219Y0.7344
X6.3219Y0.4344
X2.225Y0.7344
X2.225Y0.4344
X3.325Y0.7344
X3.325Y0.4344
X4.125Y0.7344
X4.125Y0.4344
X1.025Y0.7344
X1.025Y0.4344
X7.725Y0.7344
X7.725Y0.4344
X2.925Y0.7344
X2.925Y0.4344
X3.725Y0.7344
X3.725Y0.4344
X7.625Y0.7344
X7.625Y0.4344
X5.325Y0.7344
X5.325Y0.4344
X7.4219Y0.7344
X7.4219Y0.4344
X5.625Y0.7344
X5.625Y0.4344
X0.525Y0.7344
X0.525Y0.4344
X5.225Y0.7344
X5.225Y0.4344
X2.625Y0.7344
X2.625Y0.4344
X0.225Y0.7344
X0.225Y0.4344
X0.625Y0.7344
X0.625Y0.4344
X4.625Y0.7344
X4.625Y0.4344
X1.125Y0.7344
X1.125Y0.4344
X7.2219Y0.7344
X7.2219Y0.4344
X0.725Y0.7344
X0.725Y0.4344
X7.3219Y0.7344
X7.3219Y0.4344
X5.8219Y0.7344
X5.8219Y0.4344
X8.425Y0.7344
X8.425Y0.4344
X3.925Y0.7344
X3.925Y0.4344
X1.425Y0.7344
X1.425Y0.4344
X1.225Y0.7344
X1.225Y0.4344
X5.025Y0.7344
X5.025Y0.4344
T5
X11.118Y0.6719
X11.2656Y0.6719
X8.875Y1.0687
X8.875Y0.4688
X8.975Y1.0687
X8.975Y0.4688
X9.075Y1.0687
X9.075Y0.4688
X9.175Y1.0687
X9.175Y0.4688
X9.275Y1.0687
X9.275Y0.4688
X9.375Y1.0687
X9.375Y0.4688
X9.475Y1.0687
X9.475Y0.4688
X9.575Y1.0687
X9.575Y0.4688
X9.675Y1.0687
X9.675Y0.4688
X9.775Y1.0687
X9.775Y0.4688
X9.875Y1.0687
X9.875Y0.4688
X9.975Y1.0687
X9.975Y0.4688
X10.075Y1.0687
X10.075Y0.4688
X10.175Y1.0687
X10.175Y0.4688
X10.275Y1.0687
X10.275Y0.4688
X10.375Y1.0687
X10.375Y0.4688
X10.475Y1.0687
X10.475Y0.4688
X10.575Y1.0687
X10.575Y0.4688
X10.675Y1.0687
X10.675Y0.4688
X10.775Y1.0687
X10.775Y0.4688
X10.875Y0.6719
X11.0226Y0.6719
X10.9844Y0.5156
X11.1765Y0.5156
X9.8234Y0.9531
X9.9219Y0.9531
X9.7188Y0.5781
X9.8172Y0.5781
X10.975Y0.7969
X11.1719Y0.7969
T6
X11.7344Y0.6719
X11.8344Y0.6719
T7
X11.5266Y0.2756
X11.5266Y-0.2953
X11.625Y-0.2953
X11.7234Y0.2756
X11.7234Y-0.2953
X8.725Y0.9187
X8.725Y0.8187
X8.725Y0.7188
X8.725Y0.6188
T8
X8.3535Y1.0678
X8.3535Y0.8906
X8.6094Y1.0678
X8.6094Y0.8906
X7.8847Y1.0678
X7.8847Y0.8906
X8.1406Y1.0678
X8.1406Y0.8906
T9
X6.225Y-1.5875
X6.475Y-1.4875
X6.225Y0.1
X6.475Y0.2
X3.1313Y-3.8375
X3.3813Y-3.7375
X0.3187Y-3.0875
X0.5687Y-2.9875
X9.7875Y-4.025
X10.0375Y-3.925
X1.1625Y-3.8375
X1.4125Y-3.7375
X1.5375Y0.1
X1.7875Y0.2
X6.1312Y-3.8375
X6.3812Y-3.7375
X9.4125Y0.1
X9.6625Y0.2
X9.975Y-0.8375
X10.225Y-0.7375
X3.4125Y-2.3375
X3.6625Y-2.2375
X3.6Y-0.8375
X3.85Y-0.7375
X1.725Y-1.5875
X1.975Y-1.4875
X5.6625Y-2.3375
X5.9125Y-2.2375
X8.6625Y0.1
X8.9125Y0.2
X5.2875Y-3.0875
X5.5375Y-2.9875
X0.0375Y-1.5875
X0.2875Y-1.4875
X1.9125Y-2.3375
X2.1625Y-2.2375
X5.1Y-0.8375
X5.35Y-0.7375
X4.5375Y-3.0875
X4.7875Y-2.9875
X3.975Y-1.5875
X4.225Y-1.4875
X0.7875Y0.1
X1.0375Y0.2
X0.7875Y-3.0875
X1.0375Y-2.9875
X7.9125Y-2.3375
X8.1625Y-2.2375
X8.85Y-0.8375
X9.1Y-0.7375
X7.5375Y-3.8375
X7.7875Y-3.7375
X10.1625Y-1.5875
X10.4125Y-1.4875
X-0.0563Y-2.3375
X0.1938Y-2.2375
X5.85Y-0.8375
X6.1Y-0.7375
X10.5375Y-3.275
X10.7875Y-3.175
X8.475Y-1.5875
X8.725Y-1.4875
X3.0375Y0.1
X3.2875Y0.2
X7.1625Y-2.3375
X7.4125Y-2.2375
X8.6625Y-3.8375
X8.9125Y-3.7375
X-0.15Y0.1
X0.1Y0.2
X4.725Y-1.5875
X4.975Y-1.4875
X4.725Y0.1
X4.975Y0.2
X9.4125Y-2.3375
X9.6625Y-2.2375
X11.475Y-3.0875
X11.725Y-2.9875
X10.5062Y-1.9125
X10.6062Y-2.1625
X4.4437Y-3.8375
X4.6937Y-3.7375
X1.35Y-0.8375
X1.6Y-0.7375
X5.475Y0.1
X5.725Y0.2
X7.35Y-0.8375
X7.6Y-0.7375
X0.0375Y-3.8375
X0.2875Y-3.7375
X3.3188Y-3.8375
X3.5688Y-3.7375
X1.1625Y-2.3375
X1.4125Y-2.2375
X8.6625Y-2.3375
X8.9125Y-2.2375
X0.6Y-0.8375
X0.85Y-0.7375
X6.7875Y-3.0875
X7.0375Y-2.9875
X2.475Y-1.5875
X2.725Y-1.4875
X3.0375Y-3.0875
X3.2875Y-2.9875
X7.9125Y0.1
X8.1625Y0.2
X9.3187Y-3.0875
X9.5687Y-2.9875
X4.8187Y-3.8375
X5.0687Y-3.7375
X11.475Y-0.8375
X11.725Y-0.7375
X1.5375Y-3.0875
X1.7875Y-2.9875
X2.1Y-0.8375
X2.35Y-0.7375
X0.8812Y-3.8375
X1.1312Y-3.7375
X7.725Y-1.5875
X7.975Y-1.4875
X-0.0563Y-3.0875
X0.1938Y-2.9875
X3.7875Y-3.0875
X4.0375Y-2.9875
X6.6Y-0.8375
X6.85Y-0.7375
X4.6312Y-3.8375
X4.8812Y-3.7375
X9.225Y-1.5875
X9.475Y-1.4875
X11.475Y-2.3375
X11.725Y-2.2375
X8.2875Y-3.0875
X8.5375Y-2.9875
X6.975Y-1.5875
X7.225Y-1.4875
X5.9437Y-3.8375
X6.1937Y-3.7375
X4.9125Y-2.3375
X5.1625Y-2.2375
X-0.0563Y-3.8375
X0.1938Y-3.7375
X2.2875Y0.1
X2.5375Y0.2
X9.6Y-0.8375
X9.85Y-0.7375
X3.975Y0.1
X4.225Y0.2
X8.1Y-0.8375
X8.35Y-0.7375
X4.35Y-3.8375
X4.6Y-3.7375
X2.85Y-0.8375
X3.1Y-0.7375
X3.225Y-1.5875
X3.475Y-1.4875
X2.6625Y-2.3375
X2.9125Y-2.2375
X10.35Y0.1
X10.6Y0.2
X6.0375Y-3.0875
X6.2875Y-2.9875
X0.975Y-1.5875
X1.225Y-1.4875
X4.1625Y-2.3375
X4.4125Y-2.2375
X7.1625Y0.1
X7.4125Y0.2
X10.5375Y-4.025
X10.7875Y-3.925
X5.475Y-1.5875
X5.725Y-1.4875
X6.4125Y-2.3375
X6.6625Y-2.2375
X4.35Y-0.8375
X4.6Y-0.7375
X11.2875Y-4.025
X11.5375Y-3.925
X0.1313Y-2.3375
X0.3812Y-2.2375
X2.2875Y-3.0875
X2.5375Y-2.9875
X-0.15Y-0.8375
X0.1Y-0.7375
X1.8187Y-3.8375
X2.0688Y-3.7375
X11.475Y-1.5875
X11.725Y-1.4875
X10.35Y-0.8375
X10.6Y-0.7375
X9.8812Y-2.3375
X10.1312Y-2.2375
X7.5375Y-3.0875
X7.7875Y-2.9875
T11
X3.875Y-4.4062
X7.75Y-0.4688
X-0.2812Y0.4844
X11.9062Y0.4844
X11.9062Y1.0469
X-0.2812Y1.0469
X7.75Y-4.4062
X-0.2812Y-4.4062
X11.9062Y-4.4062
X-0.2812Y-0.4688
X3.875Y-0.4688
X11.9062Y-0.4688
T2
G00X10.9Y1.0564
M15
G01X10.9Y1.0879
M16
G05
G00X10.9Y0.9095
M15
G01X10.9Y0.9686
M16
G05
G00X11.2406Y1.0564
M15
G01X11.2406Y1.0879
M16
G05
G00X11.2406Y0.9095
M15
G01X11.2406Y0.9686
M16
G05
T10
G00X11.4045Y-0.0256
M15
G01X11.4045Y0.0256
M16
G05
G00X11.8455Y-0.0256
M15
G01X11.8455Y0.0256
M16
G05
T0
M30
