M48
; DRILL file {KiCad (5.1.4)-1} date 6 Sep 2021 7:14:02 pm
; FORMAT={-:-/ absolute / inch / decimal}
; #@! TF.CreationDate,2021-09-06T19:14:02+08:00
; #@! TF.GenerationSoftware,Kicad,Pcbnew,(5.1.4)-1
; #@! TF.FileFunction,NonPlated,1,2,NPTH
FMAT,2
INCH
T1C0.0689
T2C0.1200
T3C0.1570
%
G90
G05
T1
X5.425Y-1.6875
X5.825Y-1.6875
X6.3625Y-2.4375
X6.7625Y-2.4375
X4.3Y-0.9375
X4.7Y-0.9375
X11.2375Y-4.125
X11.6375Y-4.125
X0.0813Y-2.4375
X0.4813Y-2.4375
X2.2375Y-3.1875
X2.6375Y-3.1875
X-0.2Y-0.9375
X0.2Y-0.9375
X1.7688Y-3.9375
X2.1687Y-3.9375
X11.425Y-1.6875
X11.825Y-1.6875
X10.3Y-0.9375
X10.7Y-0.9375
X9.8312Y-2.4375
X10.2312Y-2.4375
X7.4875Y-3.1875
X7.8875Y-3.1875
X6.175Y-1.6875
X6.575Y-1.6875
X6.175Y0.0
X6.575Y0.0
X3.0812Y-3.9375
X3.4812Y-3.9375
X0.2687Y-3.1875
X0.6687Y-3.1875
X9.7375Y-4.125
X10.1375Y-4.125
X1.1125Y-3.9375
X1.5125Y-3.9375
X1.4875Y0.0
X1.8875Y0.0
X6.0812Y-3.9375
X6.4813Y-3.9375
X9.3625Y0.0
X9.7625Y0.0
X9.925Y-0.9375
X10.325Y-0.9375
X3.3625Y-2.4375
X3.7625Y-2.4375
X3.55Y-0.9375
X3.95Y-0.9375
X1.675Y-1.6875
X2.075Y-1.6875
X5.6125Y-2.4375
X6.0125Y-2.4375
X8.6125Y0.0
X9.0125Y0.0
X5.2375Y-3.1875
X5.6375Y-3.1875
X-0.0125Y-1.6875
X0.3875Y-1.6875
X1.8625Y-2.4375
X2.2625Y-2.4375
X5.05Y-0.9375
X5.45Y-0.9375
X4.4875Y-3.1875
X4.8875Y-3.1875
X3.925Y-1.6875
X4.325Y-1.6875
X0.7375Y0.0
X1.1375Y0.0
X0.7375Y-3.1875
X1.1375Y-3.1875
X7.8625Y-2.4375
X8.2625Y-2.4375
X8.8Y-0.9375
X9.2Y-0.9375
X7.4875Y-3.9375
X7.8875Y-3.9375
X10.1125Y-1.6875
X10.5125Y-1.6875
X-0.1062Y-2.4375
X0.2938Y-2.4375
X5.8Y-0.9375
X6.2Y-0.9375
X10.4875Y-3.375
X10.8875Y-3.375
X8.425Y-1.6875
X8.825Y-1.6875
X2.9875Y0.0
X3.3875Y0.0
X7.1125Y-2.4375
X7.5125Y-2.4375
X8.6125Y-3.9375
X9.0125Y-3.9375
X-0.2Y0.0
X0.2Y0.0
X4.675Y-1.6875
X5.075Y-1.6875
X4.675Y0.0
X5.075Y0.0
X9.3625Y-2.4375
X9.7625Y-2.4375
X11.425Y-3.1875
X11.825Y-3.1875
X10.4062Y-1.8625
X10.4062Y-2.2625
X4.3937Y-3.9375
X4.7938Y-3.9375
X1.3Y-0.9375
X1.7Y-0.9375
X5.425Y0.0
X5.825Y0.0
X7.3Y-0.9375
X7.7Y-0.9375
X-0.0125Y-3.9375
X0.3875Y-3.9375
X3.2687Y-3.9375
X3.6687Y-3.9375
X1.1125Y-2.4375
X1.5125Y-2.4375
X8.6125Y-2.4375
X9.0125Y-2.4375
X0.55Y-0.9375
X0.95Y-0.9375
X6.7375Y-3.1875
X7.1375Y-3.1875
X2.425Y-1.6875
X2.825Y-1.6875
X2.9875Y-3.1875
X3.3875Y-3.1875
X7.8625Y0.0
X8.2625Y0.0
X9.2687Y-3.1875
X9.6687Y-3.1875
X4.7687Y-3.9375
X5.1688Y-3.9375
X11.425Y-0.9375
X11.825Y-0.9375
X1.4875Y-3.1875
X1.8875Y-3.1875
X2.05Y-0.9375
X2.45Y-0.9375
X0.8312Y-3.9375
X1.2312Y-3.9375
X7.675Y-1.6875
X8.075Y-1.6875
X-0.1062Y-3.1875
X0.2938Y-3.1875
X3.7375Y-3.1875
X4.1375Y-3.1875
X6.55Y-0.9375
X6.95Y-0.9375
X4.5812Y-3.9375
X4.9813Y-3.9375
X9.175Y-1.6875
X9.575Y-1.6875
X11.425Y-2.4375
X11.825Y-2.4375
X8.2375Y-3.1875
X8.6375Y-3.1875
X6.925Y-1.6875
X7.325Y-1.6875
X5.8937Y-3.9375
X6.2938Y-3.9375
X4.8625Y-2.4375
X5.2625Y-2.4375
X-0.1062Y-3.9375
X0.2938Y-3.9375
X2.2375Y0.0
X2.6375Y0.0
X9.55Y-0.9375
X9.95Y-0.9375
X3.925Y0.0
X4.325Y0.0
X8.05Y-0.9375
X8.45Y-0.9375
X4.3Y-3.9375
X4.7Y-3.9375
X2.8Y-0.9375
X3.2Y-0.9375
X3.175Y-1.6875
X3.575Y-1.6875
X2.6125Y-2.4375
X3.0125Y-2.4375
X10.3Y0.0
X10.7Y0.0
X5.9875Y-3.1875
X6.3875Y-3.1875
X0.925Y-1.6875
X1.325Y-1.6875
X4.1125Y-2.4375
X4.5125Y-2.4375
X7.1125Y0.0
X7.5125Y0.0
X10.4875Y-4.125
X10.8875Y-4.125
T2
X10.6813Y-1.5925
X10.6813Y-2.5325
X3.0Y-4.2125
X3.9375Y-4.2125
X2.8127Y-4.2125
X6.7497Y-4.2125
X5.625Y-4.2125
X6.5625Y-4.2125
X2.25Y-4.2125
X6.75Y-4.2125
X9.5625Y-2.1625
X10.5Y-2.1625
X2.8125Y-4.2125
X3.75Y-4.2125
X0.0Y-2.9125
X0.9375Y-2.9125
X5.8125Y-4.2125
X6.75Y-4.2125
X9.6562Y-0.6625
X10.5938Y-0.6625
T3
X2.8125Y-2.4375
X10.5Y0.0
X6.1875Y-3.1875
X1.125Y-1.6875
X4.3125Y-2.4375
X7.3125Y0.0
X10.6875Y-4.125
X5.625Y-1.6875
X6.5625Y-2.4375
X4.5Y-0.9375
X11.4375Y-4.125
X0.2812Y-2.4375
X2.4375Y-3.1875
X0.0Y-0.9375
X1.9688Y-3.9375
X11.625Y-1.6875
X10.5Y-0.9375
X9.5625Y-2.7625
X10.0312Y-2.4375
X10.5Y-2.7625
X7.6875Y-3.1875
X6.375Y-1.6875
X6.375Y0.0
X2.8125Y-3.6125
X3.2812Y-3.9375
X3.75Y-3.6125
X0.0Y-3.5125
X0.4688Y-3.1875
X0.9375Y-3.5125
X9.9375Y-4.125
X1.3125Y-3.9375
X1.6875Y0.0
X5.8125Y-3.6125
X6.2812Y-3.9375
X6.75Y-3.6125
X9.5625Y0.0
X9.6562Y-1.2625
X10.125Y-0.9375
X10.5938Y-1.2625
X3.5625Y-2.4375
X3.75Y-0.9375
X1.875Y-1.6875
X5.8125Y-2.4375
X8.8125Y0.0
X5.4375Y-3.1875
X0.1875Y-1.6875
X2.0625Y-2.4375
X5.25Y-0.9375
X4.6875Y-3.1875
X4.125Y-1.6875
X0.9375Y0.0
X0.9375Y-3.1875
X8.0625Y-2.4375
X9.0Y-0.9375
X7.6875Y-3.9375
X10.3125Y-1.6875
X0.0938Y-2.4375
X6.0Y-0.9375
X10.6875Y-3.375
X8.625Y-1.6875
X3.1875Y0.0
X7.3125Y-2.4375
X8.8125Y-3.9375
X0.0Y0.0
X4.875Y-1.6875
X4.875Y0.0
X9.5625Y-2.4375
X11.625Y-3.1875
X10.0812Y-1.5925
X10.0812Y-2.5325
X10.4062Y-2.0625
X4.5938Y-3.9375
X1.5Y-0.9375
X5.625Y0.0
X7.5Y-0.9375
X0.1875Y-3.9375
X3.0Y-3.6125
X3.4688Y-3.9375
X3.9375Y-3.6125
X1.3125Y-2.4375
X8.8125Y-2.4375
X0.75Y-0.9375
X6.9375Y-3.1875
X2.625Y-1.6875
X3.1875Y-3.1875
X8.0625Y0.0
X9.4688Y-3.1875
X4.9688Y-3.9375
X11.625Y-0.9375
X1.6875Y-3.1875
X2.25Y-0.9375
X1.0312Y-3.9375
X7.875Y-1.6875
X0.0938Y-3.1875
X3.9375Y-3.1875
X6.75Y-0.9375
X2.8127Y-3.6125
X4.7812Y-3.9375
X6.7497Y-3.6125
X9.375Y-1.6875
X11.625Y-2.4375
X8.4375Y-3.1875
X7.125Y-1.6875
X5.625Y-3.6125
X6.0938Y-3.9375
X6.5625Y-3.6125
X5.0625Y-2.4375
X0.0938Y-3.9375
X2.4375Y0.0
X9.75Y-0.9375
X4.125Y0.0
X8.25Y-0.9375
X2.25Y-3.6125
X4.5Y-3.9375
X6.75Y-3.6125
X3.0Y-0.9375
X3.375Y-1.6875
T0
M30
